<?xml version="1.0" standalone="no"?>
<!DOCTYPE svg PUBLIC "-//W3C//DTD SVG 20010904//EN"
 "http://www.w3.org/TR/2001/REC-SVG-20010904/DTD/svg10.dtd">
<svg version="1.0" xmlns="http://www.w3.org/2000/svg"
 width="770.000000pt" height="770.000000pt" viewBox="0 0 770.000000 770.000000"
 preserveAspectRatio="xMidYMid meet">
<metadata>
Created by potrace 1.14, written by Peter Selinger 2001-2017
</metadata>
<g transform="translate(0.000000,770.000000) scale(0.100000,-0.100000)"
fill="#000000" stroke="none">
<path d="M3815 7114 c-24 -26 -88 -111 -142 -189 -53 -79 -101 -141 -107 -138
-5 3 -6 1 -3 -4 8 -13 -33 -90 -68 -127 -14 -15 -24 -30 -22 -34 5 -16 -46
-82 -64 -82 -21 0 -24 -11 -8 -27 8 -8 7 -13 -2 -18 -8 -6 -10 -4 -4 5 6 10 4
12 -9 7 -10 -4 -22 -7 -27 -7 -5 0 -9 -5 -9 -11 0 -5 4 -7 10 -4 6 3 7 -1 4
-9 -3 -9 -10 -13 -15 -10 -5 3 -6 -2 -3 -10 3 -9 1 -16 -5 -16 -6 0 -10 -10
-7 -23 5 -26 -76 -171 -89 -160 -4 5 -5 2 -1 -5 5 -7 -17 -57 -54 -122 -48
-86 -65 -108 -78 -103 -15 6 -16 5 -2 -12 14 -16 13 -17 -6 -11 -14 4 -26 1
-35 -11 -7 -10 -9 -15 -5 -11 5 4 15 3 22 -3 10 -8 9 -19 -8 -55 -12 -24 -25
-39 -28 -34 -4 6 -21 12 -38 15 -34 4 -36 0 -34 -55 0 -16 -1 -18 -5 -7 -2 9
-11 17 -18 17 -17 0 -67 -69 -59 -82 3 -4 1 -8 -4 -8 -5 0 -12 -9 -15 -20 -3
-11 0 -20 6 -20 7 0 0 -11 -15 -25 -15 -14 -31 -37 -34 -50 -3 -14 -10 -25
-14 -25 -8 0 -21 -29 -26 -59 -2 -8 -9 -18 -16 -22 -7 -5 -8 -9 -3 -9 6 0 5
-4 -1 -8 -14 -9 -108 -196 -173 -346 -183 -416 -270 -658 -327 -901 -26 -107
-29 -138 -28 -285 0 -125 4 -176 17 -209 8 -24 13 -50 10 -57 -8 -21 16 -210
38 -297 49 -193 118 -354 242 -562 58 -96 93 -141 177 -226 182 -182 308 -273
546 -392 203 -102 333 -130 594 -130 317 -1 544 70 830 257 237 156 353 276
527 546 87 137 118 202 163 352 53 174 76 293 89 457 25 302 8 488 -59 681 -7
19 -20 58 -30 85 -9 28 -28 86 -41 130 -26 89 -78 221 -132 335 -20 41 -44 98
-55 125 -37 93 -289 597 -310 621 -6 7 -8 15 -5 18 4 3 0 6 -7 6 -7 0 -10 3
-7 7 4 3 -1 12 -11 20 -9 8 -11 12 -4 8 18 -9 17 -7 -40 96 -28 52 -69 130
-91 174 -49 101 -78 148 -85 141 -3 -3 3 -16 14 -27 19 -22 19 -22 -3 -9 -18
12 -24 12 -40 0 -15 -12 -16 -12 -6 0 10 11 9 17 -4 32 -13 15 -19 16 -31 5
-11 -8 -14 -8 -9 0 4 6 3 13 -2 15 -16 6 -17 51 -1 55 10 3 11 2 4 -4 -11 -8
-4 -48 7 -41 3 2 13 -3 22 -11 24 -19 21 2 -3 24 -14 12 -17 22 -11 34 8 14 4
16 -30 15 -33 -1 -38 2 -34 17 7 20 -10 35 -21 18 -4 -8 -3 -9 4 -5 7 4 12 3
12 -3 0 -25 -19 -18 -31 11 -21 51 -13 118 13 102 7 -4 6 -9 -3 -15 -10 -6
-10 -9 -2 -9 6 0 15 5 18 11 5 6 12 4 21 -8 12 -14 11 -11 -1 15 -16 34 -29
44 -18 15 5 -14 3 -15 -7 -6 -7 6 -18 9 -24 7 -7 -3 -25 7 -39 22 -33 33 -34
27 -2 -36 40 -80 22 -58 -36 43 -52 90 -65 112 -192 310 -164 258 -268 397
-297 397 -6 0 -30 -21 -55 -46z m163 -359 c55 -88 143 -239 197 -335 54 -96
121 -215 150 -265 199 -342 638 -1220 772 -1545 151 -364 210 -672 185 -954
-53 -582 -403 -1059 -939 -1277 -176 -71 -439 -99 -649 -68 -73 11 -76 13 -53
26 14 9 17 12 6 9 -52 -16 -70 -17 -122 -2 -30 9 -53 21 -50 25 3 5 -2 12 -11
15 -9 4 -13 2 -8 -5 4 -8 -1 -9 -17 -4 -44 14 -129 58 -129 68 0 5 7 6 16 3
12 -4 14 -1 9 14 -8 25 -8 25 61 -9 54 -26 151 -52 314 -83 36 -6 130 -12 210
-12 129 0 159 4 272 32 149 37 220 67 342 146 122 79 188 136 181 155 -3 8 -3
12 1 9 10 -11 79 75 103 129 12 26 27 55 32 63 5 8 17 32 26 53 9 20 20 37 25
37 4 0 8 9 8 20 0 11 4 20 9 20 5 0 12 13 16 30 4 16 11 32 16 35 5 4 14 15
20 27 9 16 8 19 -2 13 -7 -5 -5 2 4 16 9 13 17 34 17 46 0 13 3 23 8 23 8 0
14 11 45 77 35 73 47 104 47 123 0 10 13 59 30 108 37 110 60 218 60 280 0 81
-21 255 -38 312 -18 62 -22 76 -26 105 -2 11 -9 38 -14 59 -6 22 -9 42 -7 46
3 4 -7 24 -21 45 -14 21 -23 44 -20 52 3 8 1 11 -4 8 -6 -3 -10 0 -10 9 0 8 6
17 13 19 7 3 4 6 -7 6 -15 1 -16 4 -6 16 9 11 9 15 1 15 -7 0 -10 4 -7 9 9 14
-5 42 -17 34 -6 -4 -8 0 -5 9 4 8 2 21 -3 29 -6 10 -9 10 -9 2 0 -7 -6 -13
-13 -13 -16 0 -37 41 -37 73 0 12 -9 41 -20 65 -10 23 -17 49 -14 57 4 8 1 15
-5 15 -17 0 -33 37 -19 46 7 4 8 3 4 -4 -4 -7 -2 -12 4 -12 7 0 10 6 7 13 -2
6 -11 11 -19 10 -9 -2 -14 6 -15 20 -1 48 -3 57 -15 55 -8 -2 -12 6 -11 20 2
14 -1 21 -8 17 -6 -4 -10 -1 -8 6 3 28 -1 40 -13 33 -8 -5 -9 -2 -5 9 4 10 1
17 -5 17 -6 0 -8 3 -5 7 4 3 -1 12 -11 20 -9 8 -11 12 -5 8 9 -4 11 -1 7 9 -3
9 -10 14 -14 11 -8 -5 -25 42 -21 58 1 5 -3 6 -9 2 -5 -3 -10 1 -10 9 0 9 -8
16 -17 17 -11 0 -13 3 -6 6 9 3 10 10 4 21 -5 9 -10 19 -10 22 -11 41 -15 50
-24 50 -6 0 -7 3 -4 6 4 4 -5 20 -18 36 -14 16 -25 36 -25 44 0 8 -8 14 -17
14 -15 0 -15 2 -4 9 12 8 12 11 -1 25 -9 8 -18 13 -21 10 -3 -3 -3 3 -1 13 3
11 -2 25 -10 32 -9 8 -16 19 -16 27 0 7 -6 17 -12 21 -24 15 -38 49 -25 62 9
9 8 11 -7 5 -14 -5 -17 -3 -14 7 7 18 -20 71 -32 64 -6 -4 -7 2 -3 12 3 10 2
15 -2 10 -8 -7 -34 40 -41 72 -1 8 -12 27 -23 42 -12 16 -21 34 -21 41 0 8 -6
22 -14 33 -7 11 -15 25 -16 30 -6 25 -20 54 -28 59 -5 3 -27 45 -48 93 -21 48
-41 90 -44 93 -5 5 -25 46 -75 158 -17 36 -32 59 -38 53 -11 -11 -57 31 -57
52 0 9 -5 19 -10 22 -6 4 -8 11 -4 16 8 14 23 1 38 -34 8 -18 15 -27 15 -21 1
9 -194 402 -204 412 -9 9 7 -143 30 -281 40 -244 61 -344 98 -477 123 -443
199 -658 364 -1030 231 -519 318 -817 330 -1123 12 -323 -40 -529 -192 -757
-56 -83 -161 -191 -228 -234 -102 -65 -173 -104 -242 -134 -80 -35 -269 -86
-287 -79 -8 3 -6 6 5 6 43 2 209 56 294 96 127 59 280 163 342 231 29 32 74
89 100 128 54 81 115 196 105 196 -3 0 -1 6 5 13 16 21 52 136 56 182 2 22 7
49 12 60 16 38 9 422 -9 521 -28 148 -116 440 -176 579 -30 72 -68 165 -83
209 -16 43 -37 92 -48 110 -39 65 -198 458 -234 581 -90 297 -110 367 -146
509 -23 87 -41 166 -41 175 0 10 -8 17 -19 17 -11 0 -17 -4 -15 -8 3 -4 -2 -8
-10 -8 -9 0 -16 -9 -16 -20 0 -11 -4 -20 -8 -20 -13 0 -32 -48 -32 -81 0 -17
-4 -38 -9 -47 -5 -9 -14 -67 -20 -127 -18 -172 -21 -199 -27 -215 -12 -33 -44
-204 -44 -234 0 -18 -3 -36 -7 -40 -4 -3 -8 -14 -9 -24 -21 -179 -52 -277
-115 -368 -16 -24 -29 -50 -28 -56 4 -20 -13 -92 -23 -105 -6 -7 -8 -19 -5
-28 4 -8 2 -17 -3 -20 -6 -4 -10 -17 -10 -31 0 -13 -4 -24 -10 -24 -5 0 -7
-15 -5 -32 4 -24 3 -28 -3 -13 -9 19 -9 19 -20 -2 -16 -28 -15 -34 2 -27 11 4
13 0 9 -15 -3 -11 -13 -23 -23 -26 -11 -3 -21 -20 -25 -41 -3 -20 -19 -62 -36
-94 -16 -31 -29 -66 -29 -77 0 -10 -4 -23 -9 -29 -5 -5 -21 -53 -36 -108 -30
-115 -38 -134 -74 -163 -27 -22 -51 -16 -51 13 0 8 -7 14 -15 14 -18 0 -36 34
-38 72 -3 41 -31 58 -74 46 -25 -6 -39 -20 -57 -57 -59 -115 -183 -155 -266
-85 -53 45 -56 130 -6 198 12 17 30 48 40 69 9 20 21 37 27 37 6 0 8 4 5 9 -3
5 1 14 9 21 8 7 15 18 15 24 0 6 15 20 34 30 25 13 32 23 29 37 -6 22 23 37
40 20 6 -6 14 -11 18 -11 3 0 -14 20 -39 45 l-44 45 5 62 c4 53 9 66 34 85 15
13 24 23 18 23 -6 0 -5 3 1 8 6 4 21 25 32 48 16 32 18 44 9 54 -9 10 -9 11 2
5 11 -6 12 -2 7 20 -7 26 -6 27 10 14 16 -13 16 -12 6 8 -10 17 -9 25 4 37 8
9 11 16 5 16 -6 0 -11 5 -11 11 0 5 4 8 8 5 4 -2 8 4 8 15 0 19 -1 19 -13 3
-7 -10 -13 -22 -13 -28 0 -5 -2 -7 -5 -4 -3 3 -1 16 4 30 7 18 6 25 -4 25 -7
0 -11 -7 -8 -16 2 -9 -5 -3 -17 12 l-23 28 -19 -32 c-11 -18 -17 -40 -15 -50
3 -10 0 -16 -7 -13 -21 8 -228 -441 -298 -646 -46 -136 -96 -346 -109 -460
-17 -149 -6 -358 24 -490 56 -238 116 -365 255 -535 48 -59 96 -119 106 -134
40 -55 114 -125 183 -174 40 -28 71 -53 68 -55 -9 -9 -156 70 -178 94 -12 14
-26 23 -33 20 -7 -3 -10 2 -7 14 3 11 -2 22 -15 29 -11 6 -22 18 -26 26 -4 11
-2 14 7 9 6 -4 5 1 -4 12 -9 10 -24 34 -33 52 -9 17 -23 32 -31 32 -8 0 -15 5
-15 12 0 6 -3 9 -6 6 -3 -4 3 -19 13 -34 10 -16 12 -25 6 -21 -9 6 -11 3 -7
-7 3 -9 11 -13 18 -9 6 3 8 3 4 -2 -4 -4 -3 -16 3 -26 18 -35 2 -19 -72 69
-102 120 -148 190 -207 312 -203 426 -189 886 48 1475 81 202 362 789 477 995
17 30 50 93 73 140 63 125 244 460 293 543 69 114 151 256 196 335 74 133 185
293 194 280 4 -7 51 -85 105 -173z m-598 -295 c-6 -11 -13 -20 -16 -20 -2 0 0
9 6 20 6 11 13 20 16 20 2 0 0 -9 -6 -20z m1038 -55 c-3 -3 -9 2 -12 12 -6 14
-5 15 5 6 7 -7 10 -15 7 -18z m127 -244 c3 -5 1 -12 -5 -16 -5 -3 -10 1 -10 9
0 18 6 21 15 7z m-1529 -273 c4 -7 3 -8 -4 -4 -7 4 -12 2 -12 -5 0 -7 -3 -10
-6 -6 -6 5 3 27 11 27 2 0 7 -5 11 -12z m-63 -59 c-4 -15 -8 -17 -14 -8 -8 14
-3 29 11 29 4 0 6 -9 3 -21z m-44 -1833 c27 -14 51 -53 51 -82 0 -28 -30 -74
-60 -89 -44 -23 -66 -19 -110 21 -52 47 -54 82 -6 130 38 38 77 44 125 20z
m1606 -538 c-36 -129 -87 -238 -119 -260 -6 -4 -11 -12 -11 -18 0 -6 -4 -14
-10 -18 -5 -4 -31 -32 -56 -62 -26 -31 -75 -75 -110 -99 -63 -42 -58 -36 29
35 47 39 178 208 209 269 11 22 30 70 42 108 13 37 25 67 27 67 3 0 2 -10 -1
-22z m-400 -524 c-24 -18 -83 -50 -73 -39 10 10 81 54 88 54 3 0 -4 -7 -15
-15z"/>
<path d="M3891 6684 c0 -11 3 -14 6 -6 3 7 2 16 -1 19 -3 4 -6 -2 -5 -13z"/>
<path d="M3007 5193 c-11 -11 -8 -20 7 -20 8 0 12 6 9 14 -6 15 -7 15 -16 6z"/>
<path d="M4940 4720 c6 -11 13 -20 16 -20 2 0 0 9 -6 20 -6 11 -13 20 -16 20
-2 0 0 -9 6 -20z"/>
<path d="M2960 4611 c0 -6 4 -13 10 -16 6 -3 7 1 4 9 -7 18 -14 21 -14 7z"/>
<path d="M3535 2361 c-8 -14 60 -25 82 -13 17 10 17 11 -2 10 -11 -1 -32 1
-47 5 -15 4 -29 3 -33 -2z"/>
<path d="M3676 6975 c-9 -26 -7 -32 5 -12 6 10 9 21 6 23 -2 3 -7 -2 -11 -11z"/>
<path d="M3517 6735 c-4 -8 -1 -17 6 -21 7 -4 9 -4 5 1 -4 4 -3 14 3 22 7 8 8
13 1 13 -5 0 -12 -7 -15 -15z"/>
<path d="M3410 6565 c-10 -12 -10 -15 4 -15 9 0 16 7 16 15 0 8 -2 15 -4 15
-2 0 -9 -7 -16 -15z"/>
<path d="M4490 6361 c0 -5 7 -12 16 -15 8 -3 12 -10 9 -16 -3 -5 -1 -10 4 -10
14 0 14 6 1 31 -11 19 -30 26 -30 10z"/>
<path d="M4575 6204 c2 -16 4 -31 5 -34 0 -3 5 3 11 14 9 14 8 22 -4 34 -15
14 -16 13 -12 -14z"/>
<path d="M3163 6133 c-7 -15 -11 -28 -9 -31 6 -6 28 38 24 48 -2 5 -9 -3 -15
-17z"/>
<path d="M3117 6055 c-4 -8 -2 -17 2 -20 5 -2 11 4 14 15 6 23 -8 27 -16 5z"/>
<path d="M3060 5953 c-15 -18 -22 -43 -12 -43 4 0 15 14 24 30 18 32 12 39
-12 13z"/>
<path d="M2140 3593 c-70 -46 -212 -189 -272 -273 -66 -93 -178 -293 -227
-403 -53 -122 -106 -330 -122 -484 -15 -142 -2 -351 32 -516 46 -226 178 -529
308 -705 134 -182 332 -374 414 -401 41 -14 80 -2 97 28 11 22 3 42 -65 150
-76 119 -101 363 -56 536 27 104 118 285 179 356 126 147 246 230 409 283 101
34 133 57 133 97 0 48 -16 66 -93 108 -40 22 -88 52 -107 66 -58 43 -170 157
-206 210 -19 28 -52 73 -74 100 -22 28 -65 97 -95 155 -30 58 -54 97 -55 87 0
-10 -7 -20 -15 -24 -22 -8 -71 -49 -139 -118 -32 -32 -66 -60 -75 -62 -8 -1
-21 -9 -27 -17 -6 -9 -16 -16 -22 -16 -5 0 -25 -18 -43 -40 -18 -22 -40 -40
-47 -40 -8 0 -30 -9 -48 -21 -19 -11 -34 -16 -34 -11 0 5 -14 25 -31 43 -19
20 -29 40 -26 51 3 10 1 16 -4 13 -10 -7 -48 -130 -81 -260 -19 -76 -22 -117
-22 -260 0 -280 54 -498 188 -755 42 -81 82 -140 96 -140 4 0 11 13 15 30 4
16 10 30 14 30 5 0 13 37 20 82 21 153 61 257 168 443 59 100 145 204 208 248
17 11 -8 -19 -55 -69 -159 -166 -273 -395 -301 -602 -7 -52 -9 -125 -5 -182
l7 -95 -39 38 c-45 44 -109 149 -185 303 -90 182 -124 286 -151 464 -59 375 7
738 189 1045 67 114 186 265 265 337 l71 65 -8 78 c-4 43 -13 80 -18 82 -6 2
-35 -13 -65 -34z m-256 -1165 c17 -23 20 -55 10 -83 -9 -21 -59 -46 -79 -39
-38 15 -46 77 -14 118 25 32 62 34 83 4z"/>
<path d="M5527 3608 c-3 -13 -7 -52 -8 -88 l-2 -65 90 -90 c213 -213 372 -497
424 -755 71 -353 -2 -813 -178 -1124 -58 -101 -122 -192 -162 -230 l-31 -30 6
105 c10 158 -27 333 -103 484 -21 40 -29 64 -19 56 19 -16 68 -116 98 -199 11
-31 28 -117 38 -190 10 -73 20 -136 24 -139 10 -10 36 18 81 87 54 84 65 105
110 220 109 278 140 587 86 851 -22 107 -32 138 -45 138 -9 0 -20 17 -63 104
-15 31 -36 60 -45 63 -10 3 -18 9 -18 15 0 5 -15 15 -32 22 -18 8 -42 24 -52
36 -11 11 -25 21 -31 21 -16 0 -165 160 -165 177 0 7 -9 18 -20 25 -11 7 -20
18 -20 25 0 6 -5 13 -11 15 -6 2 -11 21 -11 42 0 20 -1 36 -3 34 -2 -2 -15
-39 -29 -83 -69 -207 -206 -423 -394 -616 -69 -72 -129 -123 -180 -155 -96
-59 -103 -67 -91 -107 13 -46 35 -62 119 -87 139 -41 258 -114 352 -216 180
-195 258 -387 258 -637 0 -168 -27 -265 -106 -380 -37 -54 -43 -87 -18 -111
45 -45 126 -3 294 153 182 169 382 476 460 706 98 289 127 680 71 951 -38 186
-137 413 -259 595 -107 158 -292 353 -365 384 -46 19 -44 19 -50 -7z"/>
<path d="M4465 2119 c-363 -119 -843 -118 -1194 2 -77 27 -127 25 -169 -7 -77
-59 -80 -153 -8 -232 47 -53 193 -99 408 -128 174 -24 540 -25 708 -1 348 49
490 123 490 258 0 51 -32 98 -83 123 -44 20 -43 20 -152 -15z m-1190 -35 c17
-3 53 -14 80 -24 28 -10 82 -22 120 -28 67 -11 112 -14 348 -28 98 -5 194 -21
142 -23 -11 -1 -80 -6 -152 -12 -100 -9 -155 -9 -225 0 -112 14 -273 47 -331
67 -38 14 -43 13 -54 -3 -12 -15 -13 -13 -13 13 0 35 17 56 40 50 8 -3 29 -8
45 -12z m1260 -28 c8 -42 -9 -76 -38 -76 -20 1 -20 2 -4 11 9 6 17 22 17 38 0
27 0 27 -62 24 l-63 -3 60 19 c81 26 83 26 90 -13z m-1276 -68 c1 -5 9 -2 15
8 11 14 16 15 37 4 17 -10 20 -15 9 -18 -7 -3 -16 0 -18 7 -2 6 -8 11 -13 11
-17 0 3 -28 24 -35 13 -4 17 -8 10 -11 -13 -6 -123 40 -123 51 0 9 55 -7 59
-17z m129 -45 c-10 -2 -26 -2 -35 0 -10 3 -2 5 17 5 19 0 27 -2 18 -5z"/>
<path d="M3113 1730 c-43 -26 -64 -61 -65 -107 0 -50 20 -90 71 -136 46 -41
88 -61 177 -83 l61 -16 -29 -70 c-61 -145 -75 -310 -37 -454 23 -90 58 -159
79 -159 8 0 25 20 38 45 39 74 71 110 97 110 27 0 31 -10 59 -153 29 -146 86
-249 222 -401 l88 -98 21 25 c11 13 45 53 76 88 75 86 135 175 164 246 24 61
55 193 55 240 0 43 13 57 46 49 43 -11 81 -53 100 -108 11 -35 21 -48 35 -48
22 0 39 31 68 125 52 168 47 285 -19 460 -22 59 -40 109 -40 111 0 1 26 8 58
14 97 21 155 47 199 92 77 79 84 141 23 199 -57 54 -83 56 -262 21 -216 -43
-454 -66 -603 -58 -120 7 -305 31 -510 67 -135 23 -133 23 -172 -1z m1368 -39
c-13 -9 -328 -61 -491 -83 -120 -15 -435 -15 -517 1 -34 6 -93 12 -130 12 -40
1 -77 7 -90 15 -13 8 -23 10 -23 5 0 -18 -29 0 -36 21 -12 38 7 40 182 17 141
-18 223 -22 499 -23 303 -1 341 1 465 22 74 13 137 25 139 28 2 2 7 2 10 -2 3
-3 0 -9 -8 -13z m59 -33 c0 -15 -10 -36 -22 -48 -30 -28 -47 -25 -20 3 15 16
22 36 22 63 0 29 3 35 10 24 5 -8 10 -27 10 -42z m-1217 -68 c5 0 5 4 2 10
-10 15 47 -8 59 -25 6 -8 49 -21 96 -29 47 -7 73 -14 58 -15 -63 -3 -299 57
-313 79 -3 5 16 3 42 -5 26 -8 52 -15 56 -15z m945 -328 c46 -140 44 -149 -36
-150 -53 -1 -107 -76 -143 -201 -18 -64 -46 -117 -56 -107 -3 2 -10 1 -17 -5
-41 -34 -95 -73 -119 -86 -62 -32 -144 19 -209 129 -23 40 -48 79 -55 86 -7 7
-21 32 -31 55 -22 48 -48 78 -92 103 -16 10 -30 22 -30 26 0 4 -5 8 -10 8 -6
0 -20 8 -31 19 -20 18 -20 18 5 94 41 127 14 115 253 110 114 -2 273 0 353 5
80 5 154 10 165 10 17 1 25 -15 53 -96z"/>
</g>
</svg>
